{"title":"Ash vs Evil Dead S01E07 1080p HDTV x264-BRISK[2ddl]","uid":12991733,"size":3038403844,"categoryP":"video","categoryS":"hd___tv_shows","magnet":"?xt=urn:btih:57590cf12a59c5a3e8011fe77da9437aef591a5b&amp;dn=Ash+vs+Evil+Dead+S01E07+1080p+HDTV+x264-BRISK%5B2ddl%5D&amp;tr=udp%3A%2F%2Ftracker.leechers-paradise.org%3A6969&amp;tr=udp%3A%2F%2Fzer0day.ch%3A1337&amp;tr=udp%3A%2F%2Fopen.demonii.com%3A1337&amp;tr=udp%3A%2F%2Ftracker.coppersurfer.tk%3A6969&amp;tr=udp%3A%2F%2Fexodus.desync.com%3A6969","seeders":0,"leechers":1,"uploader":"cheerfulcaca","files":3,"time":1450130210,"description":"SEASON 1, EPISODE 7 &quot;FIRE IN THE HOLE&quot; SYNOPSIS:\n\nAsh and the others turn to Lem's survivalist group for help. However, by the time the Deadite fighters get there, it's too late. Meanwhile, Ruby discovers that Ash's severed hand is missing.\n\n\nSERIES INFO:\n\n9.3/10·IMDb\n98%·Rotten Tomatoes\n9.4/10·TV.com\n\nAsh is baaaack! Bruce Campbell reprises his &quot;Evil Dead&quot; film role as heroic, chainsaw-handed monster fighter Ash Williams, now an aging lothario who has successfully avoided responsibility, maturity and heinous villains for the past 30 years. Constantly peering over his shoulder, Ash somehow knew that the Evil Dead would return for him. That day arrives when Ash commits an act of carelessness, unleashing a Deadite plague that threatens to destroy mankind. Co-starring in the half-hour series are Lucy Lawless as mysterious Ruby; Ray Santiago as Ash's loyal sidekick, Pablo Simon Bolivar; Dana DeLorenzo as moody wild child Kelly Maxwell; and Jill Marie Jones as disgraced Michigan State Trooper Amanda Fisher.\n\n\nMEDIA INFO:\n\nGeneral:\n\nComplete name                            : Ash.vs.Evil.Dead.S01E07.1080p.HDTV.x264-BRISK.mkv\nFormat                                   : Matroska\nFormat version                           : Version 2\nFile size                                : 2.74 GiB\nDuration                                 : 25mn 32s\nOverall bit rate                         : 15.3 Mbps\nWriting application                      : libebml v1.3.0 + libmatroska v1.4.0\nWriting library                          : mkvmerge v6.1.0 ('Old Devil') built on Mar  2 2013 14:32:37\n\nVideo:\n\nID                                       : 1\nFormat                                   : AVC\nFormat/Info                              : Advanced Video Codec\nFormat profile                           :   \nFormat settings, CABAC                   : Yes\nFormat settings, ReFrames                : 4 frames\nCodec ID                                 : V_MPEG4/ISO/AVC\nDuration                                 : 25mn 32s\nBit rate                                 : 14.6 Mbps\nWidth                                    : 1 920 pixels\nHeight                                   : 1 080 pixels\nDisplay aspect ratio                     : 16:9\nFrame rate mode                          : Constant\nFrame rate                               : 23.976 (24000/1001) fps\nColor space                              : YUV\nChroma subsampling                       : 4:2:0\nBit depth                                : 8 bits\nScan type                                : Progressive\nBits/(Pixel*Frame)                       : 0.295\nStream size                              : 2.61 GiB (96%)\nWriting library                          : x264 core 148 r2638 7599210\nEncoding settings                        : cabac=1 / ref=4 / deblock=1:-3:-3 / analyse=0x3:0x113 / me=umh / subme=8 / psy=1 / psy_rd=1.05:0.00 / mixed_ref=1 / me_range=16 / chroma_me=1 / trellis=1 / 8x8dct=1 / cqm=0 / deadzone=21,11 / fast_pskip=1 / chroma_qp_offset=-2 / threads=30 / lookahead_threads=5 / sliced_threads=0 / nr=0 / decimate=1 / interlaced=0 / bluray_compat=0 / constrained_intra=0 / bframes=3 / b_pyramid=2 / b_adapt=2 / b_bias=0 / direct=3 / weightb=1 / open_gop=0 / weightp=2 / keyint=250 / keyint_min=23 / scenecut=40 / intra_refresh=0 / rc_lookahead=50 / rc=crf / mbtree=1 / crf=17.0 / qcomp=0.60 / qpmin=0 / qpmax=69 / qpstep=4 / ip_ratio=1.40 / aq=3:0.80\nLanguage                                 : English\nDefault                                  : Yes\nForced                                   : No\n\nAudio:\n\nID                                       : 2\nFormat                                   : AC-3\nFormat/Info                              : Audio Coding 3\nMode extension                           : CM (complete main)\nFormat settings, Endianness              : Big\nCodec ID                                 : A_AC3\nDuration                                 : 25mn 32s\nBit rate mode                            : Constant\nBit rate                                 : 384 Kbps\nChannel(s)                               : 6 channels\nChannel positions                        : Front: L C R, Side: L R, LFE\nSampling rate                            : 48.0 KHz\nFrame rate                               : 31.250 fps (1536 spf)\nCompression mode                         : Lossy\nStream size                              : 70.1 MiB (3%)\nLanguage                                 : English\nDefault                                  : Yes\nForced                                   : No\n\nText:\n\nID                                       : 3\nFormat                                   : UTF-8\nCodec ID                                 : S_TEXT/UTF8\nCodec ID/Info                            : UTF-8 Plain Text\nTitle                                    : English\nLanguage                                 : English\nDefault                                  : Yes\nForced                                   : No\n \nhttp://www.2ddl.net","torrent":{"xt":"urn:btih:57590cf12a59c5a3e8011fe77da9437aef591a5b","amp;dn":"Ash+vs+Evil+Dead+S01E07+1080p+HDTV+x264-BRISK%5B2ddl%5D","amp;tr":["udp%3A%2F%2Ftracker.leechers-paradise.org%3A6969","udp%3A%2F%2Fzer0day.ch%3A1337","udp%3A%2F%2Fopen.demonii.com%3A1337","udp%3A%2F%2Ftracker.coppersurfer.tk%3A6969","udp%3A%2F%2Fexodus.desync.com%3A6969"],"infoHash":"57590cf12a59c5a3e8011fe77da9437aef591a5b","infoHashBuffer":{"type":"Buffer","data":[87,89,12,241,42,89,197,163,232,1,31,231,125,169,67,122,239,89,26,91]},"announce":[],"urlList":[]}}